<?xml version="1.0" encoding="UTF-8" standalone="no"?>
<!DOCTYPE svg PUBLIC "-//W3C//DTD SVG 1.1//EN" "http://www.w3.org/Graphics/SVG/1.1/DTD/svg11.dtd">
<svg width="100%" height="100%" viewBox="0 0 800 400" version="1.1" xmlns="http://www.w3.org/2000/svg" xmlns:xlink="http://www.w3.org/1999/xlink" xml:space="preserve" xmlns:serif="http://www.serif.com/" style="fill-rule:evenodd;clip-rule:evenodd;stroke-linecap:square;stroke-miterlimit:2;">
    <g transform="matrix(11.801,0,0,2.86986,-717.489,-356.547)">
        <g transform="matrix(0.0847384,0,0,0.348449,57.3184,95.2323)">
            <path d="M73.453,168.916L74.156,160.478L168.516,160.478L167.813,168.916L73.453,168.916ZM100.172,241.9L107.203,160.478L136.453,160.478L129.422,241.9L100.172,241.9Z" style="fill:none;fill-rule:nonzero;stroke:rgb(187,152,97);stroke-width:3.88px;"/>
            <path d="M179.625,241.9L182.156,212.509L211.406,212.509L208.875,241.9L179.625,241.9ZM245.578,241.9L249.797,194.087L279.047,194.087L274.828,241.9L245.578,241.9ZM179.625,241.9L180.469,233.462L273.703,233.462L273,241.9L179.625,241.9ZM182.156,220.947L182.86,212.509L276.094,212.509L275.391,220.947L182.156,220.947ZM184.266,202.525L184.969,194.087L278.203,194.087L277.5,202.525L184.266,202.525Z" style="fill:none;fill-rule:nonzero;stroke:rgb(187,152,97);stroke-width:3.88px;"/>
            <path d="M292.125,241.9L299.156,160.478L328.406,160.478L321.375,241.9L292.125,241.9ZM357.938,241.9L337.688,201.962L366.938,201.962L387.188,241.9L357.938,241.9ZM297.61,222.775L298.453,212.087L391.969,185.087L391.125,195.775L297.61,222.775Z" style="fill:none;fill-rule:nonzero;stroke:rgb(187,152,97);stroke-width:3.88px;"/>
            <path d="M472.266,220.947L474.516,194.087L503.766,194.087L501.516,220.947L472.266,220.947ZM404.625,241.9L408.844,194.087L438.094,194.087L433.875,241.9L404.625,241.9ZM404.625,241.9L405.469,233.462L498.703,233.462L498,241.9L404.625,241.9ZM407.156,220.947L407.86,212.509L501.094,212.509L500.391,220.947L407.156,220.947ZM409.266,202.525L409.969,194.087L503.203,194.087L502.5,202.525L409.266,202.525Z" style="fill:none;fill-rule:nonzero;stroke:rgb(187,152,97);stroke-width:3.88px;"/>
            <path d="M517.125,241.9L521.344,194.087L550.594,194.087L546.375,241.9L517.125,241.9ZM517.125,241.9L517.969,233.462L611.203,233.462L610.5,241.9L517.125,241.9ZM521.766,202.525L522.469,194.087L615.703,194.087L615,202.525L521.766,202.525ZM582.938,241.9L589.969,160.478L619.219,160.478L612.188,241.9L582.938,241.9Z" style="fill:none;fill-rule:nonzero;stroke:rgb(187,152,97);stroke-width:3.88px;"/>
            <path d="M629.625,241.9L632.156,212.509L661.406,212.509L658.875,241.9L629.625,241.9ZM695.578,241.9L699.797,194.087L729.047,194.087L724.828,241.9L695.578,241.9ZM629.625,241.9L630.469,233.462L723.703,233.462L723,241.9L629.625,241.9ZM632.156,220.947L632.86,212.509L726.094,212.509L725.391,220.947L632.156,220.947ZM634.266,202.525L634.969,194.087L728.203,194.087L727.5,202.525L634.266,202.525Z" style="fill:none;fill-rule:nonzero;stroke:rgb(187,152,97);stroke-width:3.88px;"/>
            <path d="M211.125,397.9L218.156,316.478L247.406,316.478L240.375,397.9L211.125,397.9ZM216.891,372.025L218.297,357.962L313.5,315.775L312.094,329.837L216.891,372.025ZM276.938,397.9L250.781,343.9L280.031,343.9L306.188,397.9L276.938,397.9Z" style="fill:none;fill-rule:nonzero;stroke:rgb(187,152,97);stroke-width:3.88px;"/>
            <path d="M323.625,397.9L326.156,368.509L355.406,368.509L352.875,397.9L323.625,397.9ZM389.578,397.9L393.797,350.087L423.047,350.087L418.828,397.9L389.578,397.9ZM323.625,397.9L324.469,389.462L417.703,389.462L417,397.9L323.625,397.9ZM326.156,376.947L326.86,368.509L420.094,368.509L419.391,376.947L326.156,376.947ZM328.266,358.525L328.969,350.087L422.203,350.087L421.5,358.525L328.266,358.525Z" style="fill:none;fill-rule:nonzero;stroke:rgb(187,152,97);stroke-width:3.88px;"/>
            <path d="M436.125,397.9L448.219,389.462L531.891,389.462L531.188,397.9L436.125,397.9ZM439.641,358.525L440.344,350.087L534.703,350.087L522.75,358.525L439.641,358.525ZM436.125,397.9L498.844,350.087L534.844,350.087L472.125,397.9L436.125,397.9Z" style="fill:none;fill-rule:nonzero;stroke:rgb(187,152,97);stroke-width:3.88px;"/>
            <path d="M548.625,397.9L552.844,350.087L582.094,350.087L577.875,397.9L548.625,397.9ZM614.438,397.9L618.656,350.087L647.906,350.087L643.688,397.9L614.438,397.9ZM548.625,397.9L549.469,389.462L642.703,389.462L642,397.9L548.625,397.9Z" style="fill:none;fill-rule:nonzero;stroke:rgb(187,152,97);stroke-width:3.88px;"/>
            <path d="M661.125,397.9L668.156,316.478L697.406,316.478L690.375,397.9L661.125,397.9ZM726.938,397.9L706.688,357.962L735.938,357.962L756.188,397.9L726.938,397.9ZM666.61,378.775L667.453,368.087L760.969,341.087L760.125,351.775L666.61,378.775Z" style="fill:none;fill-rule:nonzero;stroke:rgb(187,152,97);stroke-width:3.88px;"/>
            <path d="M781.781,329.837L782.906,316.337L812.156,316.337L811.031,329.837L781.781,329.837ZM776.016,397.9L780.094,350.087L809.344,350.087L805.266,397.9L776.016,397.9Z" style="fill:none;fill-rule:nonzero;stroke:rgb(187,152,97);stroke-width:3.88px;"/>
        </g>
        <g transform="matrix(0.0847384,0,0,0.348449,57.3184,95.2323)">
            <g transform="matrix(144,0,0,144,62.6251,246.962)">
                <path d="M0.075,-0.542L0.08,-0.601L0.735,-0.601L0.73,-0.542L0.075,-0.542ZM0.261,-0.035L0.31,-0.601L0.513,-0.601L0.464,-0.035L0.261,-0.035Z" style="fill:rgb(183,177,151);fill-rule:nonzero;"/>
            </g>
            <g transform="matrix(144,0,0,144,175.125,246.962)">
                <path d="M0.031,-0.035L0.049,-0.239L0.252,-0.239L0.234,-0.035L0.031,-0.035ZM0.489,-0.035L0.519,-0.367L0.722,-0.367L0.692,-0.035L0.489,-0.035ZM0.031,-0.035L0.037,-0.094L0.685,-0.094L0.68,-0.035L0.031,-0.035ZM0.049,-0.181L0.054,-0.239L0.701,-0.239L0.696,-0.181L0.049,-0.181ZM0.063,-0.309L0.068,-0.367L0.716,-0.367L0.711,-0.309L0.063,-0.309Z" style="fill:rgb(183,177,151);fill-rule:nonzero;"/>
            </g>
            <g transform="matrix(144,0,0,144,287.625,246.962)">
                <path d="M0.031,-0.035L0.08,-0.601L0.283,-0.601L0.234,-0.035L0.031,-0.035ZM0.488,-0.035L0.348,-0.313L0.551,-0.313L0.691,-0.035L0.488,-0.035ZM0.069,-0.168L0.075,-0.242L0.725,-0.43L0.719,-0.355L0.069,-0.168Z" style="fill:rgb(183,177,151);fill-rule:nonzero;"/>
            </g>
            <g transform="matrix(144,0,0,144,400.125,246.962)">
                <path d="M0.501,-0.181L0.517,-0.367L0.72,-0.367L0.704,-0.181L0.501,-0.181ZM0.031,-0.035L0.061,-0.367L0.264,-0.367L0.234,-0.035L0.031,-0.035ZM0.031,-0.035L0.037,-0.094L0.685,-0.094L0.68,-0.035L0.031,-0.035ZM0.049,-0.181L0.054,-0.239L0.701,-0.239L0.696,-0.181L0.049,-0.181ZM0.063,-0.309L0.068,-0.367L0.716,-0.367L0.711,-0.309L0.063,-0.309Z" style="fill:rgb(183,177,151);fill-rule:nonzero;"/>
            </g>
            <g transform="matrix(144,0,0,144,512.625,246.962)">
                <path d="M0.031,-0.035L0.061,-0.367L0.264,-0.367L0.234,-0.035L0.031,-0.035ZM0.031,-0.035L0.037,-0.094L0.685,-0.094L0.68,-0.035L0.031,-0.035ZM0.063,-0.309L0.068,-0.367L0.716,-0.367L0.711,-0.309L0.063,-0.309ZM0.488,-0.035L0.537,-0.601L0.74,-0.601L0.691,-0.035L0.488,-0.035Z" style="fill:rgb(183,177,151);fill-rule:nonzero;"/>
            </g>
            <g transform="matrix(144,0,0,144,625.125,246.962)">
                <path d="M0.031,-0.035L0.049,-0.239L0.252,-0.239L0.234,-0.035L0.031,-0.035ZM0.489,-0.035L0.519,-0.367L0.722,-0.367L0.692,-0.035L0.489,-0.035ZM0.031,-0.035L0.037,-0.094L0.685,-0.094L0.68,-0.035L0.031,-0.035ZM0.049,-0.181L0.054,-0.239L0.701,-0.239L0.696,-0.181L0.049,-0.181ZM0.063,-0.309L0.068,-0.367L0.716,-0.367L0.711,-0.309L0.063,-0.309Z" style="fill:rgb(183,177,151);fill-rule:nonzero;"/>
            </g>
            <g transform="matrix(144,0,0,144,206.625,402.962)">
                <path d="M0.031,-0.035L0.08,-0.601L0.283,-0.601L0.234,-0.035L0.031,-0.035ZM0.071,-0.215L0.081,-0.313L0.742,-0.605L0.732,-0.508L0.071,-0.215ZM0.488,-0.035L0.307,-0.41L0.51,-0.41L0.691,-0.035L0.488,-0.035Z" style="fill:rgb(183,177,151);fill-rule:nonzero;"/>
            </g>
            <g transform="matrix(144,0,0,144,319.125,402.962)">
                <path d="M0.031,-0.035L0.049,-0.239L0.252,-0.239L0.234,-0.035L0.031,-0.035ZM0.489,-0.035L0.519,-0.367L0.722,-0.367L0.692,-0.035L0.489,-0.035ZM0.031,-0.035L0.037,-0.094L0.685,-0.094L0.68,-0.035L0.031,-0.035ZM0.049,-0.181L0.054,-0.239L0.701,-0.239L0.696,-0.181L0.049,-0.181ZM0.063,-0.309L0.068,-0.367L0.716,-0.367L0.711,-0.309L0.063,-0.309Z" style="fill:rgb(183,177,151);fill-rule:nonzero;"/>
            </g>
            <g transform="matrix(144,0,0,144,431.625,402.962)">
                <path d="M0.031,-0.035L0.115,-0.094L0.696,-0.094L0.691,-0.035L0.031,-0.035ZM0.056,-0.309L0.061,-0.367L0.716,-0.367L0.633,-0.309L0.056,-0.309ZM0.031,-0.035L0.467,-0.367L0.717,-0.367L0.281,-0.035L0.031,-0.035Z" style="fill:rgb(183,177,151);fill-rule:nonzero;"/>
            </g>
            <g transform="matrix(144,0,0,144,544.125,402.962)">
                <path d="M0.031,-0.035L0.061,-0.367L0.264,-0.367L0.234,-0.035L0.031,-0.035ZM0.488,-0.035L0.518,-0.367L0.721,-0.367L0.691,-0.035L0.488,-0.035ZM0.031,-0.035L0.037,-0.094L0.685,-0.094L0.68,-0.035L0.031,-0.035Z" style="fill:rgb(183,177,151);fill-rule:nonzero;"/>
            </g>
            <g transform="matrix(144,0,0,144,656.625,402.962)">
                <path d="M0.031,-0.035L0.08,-0.601L0.283,-0.601L0.234,-0.035L0.031,-0.035ZM0.488,-0.035L0.348,-0.313L0.551,-0.313L0.691,-0.035L0.488,-0.035ZM0.069,-0.168L0.075,-0.242L0.725,-0.43L0.719,-0.355L0.069,-0.168Z" style="fill:rgb(183,177,151);fill-rule:nonzero;"/>
            </g>
            <g transform="matrix(144,0,0,144,769.125,402.962)">
                <path d="M0.088,-0.508L0.096,-0.602L0.299,-0.602L0.291,-0.508L0.088,-0.508ZM0.048,-0.035L0.076,-0.367L0.279,-0.367L0.251,-0.035L0.048,-0.035Z" style="fill:rgb(183,177,151);fill-rule:nonzero;"/>
            </g>
        </g>
    </g>
    <g transform="matrix(11.801,0,0,2.86986,-721.98,-360.396)">
        <g transform="matrix(0.0847384,0,0,0.348449,57.3184,95.2323)">
            <path d="M73.453,168.916L74.156,160.478L168.516,160.478L167.813,168.916L73.453,168.916ZM100.172,241.9L107.203,160.478L136.453,160.478L129.422,241.9L100.172,241.9Z" style="fill:none;fill-rule:nonzero;stroke:rgb(187,152,97);stroke-width:3.88px;"/>
            <path d="M179.625,241.9L182.156,212.509L211.406,212.509L208.875,241.9L179.625,241.9ZM245.578,241.9L249.797,194.087L279.047,194.087L274.828,241.9L245.578,241.9ZM179.625,241.9L180.469,233.462L273.703,233.462L273,241.9L179.625,241.9ZM182.156,220.947L182.86,212.509L276.094,212.509L275.391,220.947L182.156,220.947ZM184.266,202.525L184.969,194.087L278.203,194.087L277.5,202.525L184.266,202.525Z" style="fill:none;fill-rule:nonzero;stroke:rgb(187,152,97);stroke-width:3.88px;"/>
            <path d="M292.125,241.9L299.156,160.478L328.406,160.478L321.375,241.9L292.125,241.9ZM357.938,241.9L337.688,201.962L366.938,201.962L387.188,241.9L357.938,241.9ZM297.61,222.775L298.453,212.087L391.969,185.087L391.125,195.775L297.61,222.775Z" style="fill:none;fill-rule:nonzero;stroke:rgb(187,152,97);stroke-width:3.88px;"/>
            <path d="M472.266,220.947L474.516,194.087L503.766,194.087L501.516,220.947L472.266,220.947ZM404.625,241.9L408.844,194.087L438.094,194.087L433.875,241.9L404.625,241.9ZM404.625,241.9L405.469,233.462L498.703,233.462L498,241.9L404.625,241.9ZM407.156,220.947L407.86,212.509L501.094,212.509L500.391,220.947L407.156,220.947ZM409.266,202.525L409.969,194.087L503.203,194.087L502.5,202.525L409.266,202.525Z" style="fill:none;fill-rule:nonzero;stroke:rgb(187,152,97);stroke-width:3.88px;"/>
            <path d="M517.125,241.9L521.344,194.087L550.594,194.087L546.375,241.9L517.125,241.9ZM517.125,241.9L517.969,233.462L611.203,233.462L610.5,241.9L517.125,241.9ZM521.766,202.525L522.469,194.087L615.703,194.087L615,202.525L521.766,202.525ZM582.938,241.9L589.969,160.478L619.219,160.478L612.188,241.9L582.938,241.9Z" style="fill:none;fill-rule:nonzero;stroke:rgb(187,152,97);stroke-width:3.88px;"/>
            <path d="M629.625,241.9L632.156,212.509L661.406,212.509L658.875,241.9L629.625,241.9ZM695.578,241.9L699.797,194.087L729.047,194.087L724.828,241.9L695.578,241.9ZM629.625,241.9L630.469,233.462L723.703,233.462L723,241.9L629.625,241.9ZM632.156,220.947L632.86,212.509L726.094,212.509L725.391,220.947L632.156,220.947ZM634.266,202.525L634.969,194.087L728.203,194.087L727.5,202.525L634.266,202.525Z" style="fill:none;fill-rule:nonzero;stroke:rgb(187,152,97);stroke-width:3.88px;"/>
            <path d="M211.125,397.9L218.156,316.478L247.406,316.478L240.375,397.9L211.125,397.9ZM216.891,372.025L218.297,357.962L313.5,315.775L312.094,329.837L216.891,372.025ZM276.938,397.9L250.781,343.9L280.031,343.9L306.188,397.9L276.938,397.9Z" style="fill:none;fill-rule:nonzero;stroke:rgb(187,152,97);stroke-width:3.88px;"/>
            <path d="M323.625,397.9L326.156,368.509L355.406,368.509L352.875,397.9L323.625,397.9ZM389.578,397.9L393.797,350.087L423.047,350.087L418.828,397.9L389.578,397.9ZM323.625,397.9L324.469,389.462L417.703,389.462L417,397.9L323.625,397.9ZM326.156,376.947L326.86,368.509L420.094,368.509L419.391,376.947L326.156,376.947ZM328.266,358.525L328.969,350.087L422.203,350.087L421.5,358.525L328.266,358.525Z" style="fill:none;fill-rule:nonzero;stroke:rgb(187,152,97);stroke-width:3.88px;"/>
            <path d="M436.125,397.9L448.219,389.462L531.891,389.462L531.188,397.9L436.125,397.9ZM439.641,358.525L440.344,350.087L534.703,350.087L522.75,358.525L439.641,358.525ZM436.125,397.9L498.844,350.087L534.844,350.087L472.125,397.9L436.125,397.9Z" style="fill:none;fill-rule:nonzero;stroke:rgb(187,152,97);stroke-width:3.88px;"/>
            <path d="M548.625,397.9L552.844,350.087L582.094,350.087L577.875,397.9L548.625,397.9ZM614.438,397.9L618.656,350.087L647.906,350.087L643.688,397.9L614.438,397.9ZM548.625,397.9L549.469,389.462L642.703,389.462L642,397.9L548.625,397.9Z" style="fill:none;fill-rule:nonzero;stroke:rgb(187,152,97);stroke-width:3.88px;"/>
            <path d="M661.125,397.9L668.156,316.478L697.406,316.478L690.375,397.9L661.125,397.9ZM726.938,397.9L706.688,357.962L735.938,357.962L756.188,397.9L726.938,397.9ZM666.61,378.775L667.453,368.087L760.969,341.087L760.125,351.775L666.61,378.775Z" style="fill:none;fill-rule:nonzero;stroke:rgb(187,152,97);stroke-width:3.88px;"/>
            <path d="M781.781,329.837L782.906,316.337L812.156,316.337L811.031,329.837L781.781,329.837ZM776.016,397.9L780.094,350.087L809.344,350.087L805.266,397.9L776.016,397.9Z" style="fill:none;fill-rule:nonzero;stroke:rgb(187,152,97);stroke-width:3.88px;"/>
        </g>
        <g transform="matrix(0.0847384,0,0,0.348449,57.3184,95.2323)">
            <g transform="matrix(144,0,0,144,62.6251,246.962)">
                <path d="M0.075,-0.542L0.08,-0.601L0.735,-0.601L0.73,-0.542L0.075,-0.542ZM0.261,-0.035L0.31,-0.601L0.513,-0.601L0.464,-0.035L0.261,-0.035Z" style="fill:rgb(238,233,212);fill-rule:nonzero;"/>
            </g>
            <g transform="matrix(144,0,0,144,175.125,246.962)">
                <path d="M0.031,-0.035L0.049,-0.239L0.252,-0.239L0.234,-0.035L0.031,-0.035ZM0.489,-0.035L0.519,-0.367L0.722,-0.367L0.692,-0.035L0.489,-0.035ZM0.031,-0.035L0.037,-0.094L0.685,-0.094L0.68,-0.035L0.031,-0.035ZM0.049,-0.181L0.054,-0.239L0.701,-0.239L0.696,-0.181L0.049,-0.181ZM0.063,-0.309L0.068,-0.367L0.716,-0.367L0.711,-0.309L0.063,-0.309Z" style="fill:rgb(238,233,212);fill-rule:nonzero;"/>
            </g>
            <g transform="matrix(144,0,0,144,287.625,246.962)">
                <path d="M0.031,-0.035L0.08,-0.601L0.283,-0.601L0.234,-0.035L0.031,-0.035ZM0.488,-0.035L0.348,-0.313L0.551,-0.313L0.691,-0.035L0.488,-0.035ZM0.069,-0.168L0.075,-0.242L0.725,-0.43L0.719,-0.355L0.069,-0.168Z" style="fill:rgb(238,233,212);fill-rule:nonzero;"/>
            </g>
            <g transform="matrix(144,0,0,144,400.125,246.962)">
                <path d="M0.501,-0.181L0.517,-0.367L0.72,-0.367L0.704,-0.181L0.501,-0.181ZM0.031,-0.035L0.061,-0.367L0.264,-0.367L0.234,-0.035L0.031,-0.035ZM0.031,-0.035L0.037,-0.094L0.685,-0.094L0.68,-0.035L0.031,-0.035ZM0.049,-0.181L0.054,-0.239L0.701,-0.239L0.696,-0.181L0.049,-0.181ZM0.063,-0.309L0.068,-0.367L0.716,-0.367L0.711,-0.309L0.063,-0.309Z" style="fill:rgb(238,233,212);fill-rule:nonzero;"/>
            </g>
            <g transform="matrix(144,0,0,144,512.625,246.962)">
                <path d="M0.031,-0.035L0.061,-0.367L0.264,-0.367L0.234,-0.035L0.031,-0.035ZM0.031,-0.035L0.037,-0.094L0.685,-0.094L0.68,-0.035L0.031,-0.035ZM0.063,-0.309L0.068,-0.367L0.716,-0.367L0.711,-0.309L0.063,-0.309ZM0.488,-0.035L0.537,-0.601L0.74,-0.601L0.691,-0.035L0.488,-0.035Z" style="fill:rgb(238,233,212);fill-rule:nonzero;"/>
            </g>
            <g transform="matrix(144,0,0,144,625.125,246.962)">
                <path d="M0.031,-0.035L0.049,-0.239L0.252,-0.239L0.234,-0.035L0.031,-0.035ZM0.489,-0.035L0.519,-0.367L0.722,-0.367L0.692,-0.035L0.489,-0.035ZM0.031,-0.035L0.037,-0.094L0.685,-0.094L0.68,-0.035L0.031,-0.035ZM0.049,-0.181L0.054,-0.239L0.701,-0.239L0.696,-0.181L0.049,-0.181ZM0.063,-0.309L0.068,-0.367L0.716,-0.367L0.711,-0.309L0.063,-0.309Z" style="fill:rgb(238,233,212);fill-rule:nonzero;"/>
            </g>
            <g transform="matrix(144,0,0,144,206.625,402.962)">
                <path d="M0.031,-0.035L0.08,-0.601L0.283,-0.601L0.234,-0.035L0.031,-0.035ZM0.071,-0.215L0.081,-0.313L0.742,-0.605L0.732,-0.508L0.071,-0.215ZM0.488,-0.035L0.307,-0.41L0.51,-0.41L0.691,-0.035L0.488,-0.035Z" style="fill:rgb(238,233,212);fill-rule:nonzero;"/>
            </g>
            <g transform="matrix(144,0,0,144,319.125,402.962)">
                <path d="M0.031,-0.035L0.049,-0.239L0.252,-0.239L0.234,-0.035L0.031,-0.035ZM0.489,-0.035L0.519,-0.367L0.722,-0.367L0.692,-0.035L0.489,-0.035ZM0.031,-0.035L0.037,-0.094L0.685,-0.094L0.68,-0.035L0.031,-0.035ZM0.049,-0.181L0.054,-0.239L0.701,-0.239L0.696,-0.181L0.049,-0.181ZM0.063,-0.309L0.068,-0.367L0.716,-0.367L0.711,-0.309L0.063,-0.309Z" style="fill:rgb(238,233,212);fill-rule:nonzero;"/>
            </g>
            <g transform="matrix(144,0,0,144,431.625,402.962)">
                <path d="M0.031,-0.035L0.115,-0.094L0.696,-0.094L0.691,-0.035L0.031,-0.035ZM0.056,-0.309L0.061,-0.367L0.716,-0.367L0.633,-0.309L0.056,-0.309ZM0.031,-0.035L0.467,-0.367L0.717,-0.367L0.281,-0.035L0.031,-0.035Z" style="fill:rgb(238,233,212);fill-rule:nonzero;"/>
            </g>
            <g transform="matrix(144,0,0,144,544.125,402.962)">
                <path d="M0.031,-0.035L0.061,-0.367L0.264,-0.367L0.234,-0.035L0.031,-0.035ZM0.488,-0.035L0.518,-0.367L0.721,-0.367L0.691,-0.035L0.488,-0.035ZM0.031,-0.035L0.037,-0.094L0.685,-0.094L0.68,-0.035L0.031,-0.035Z" style="fill:rgb(238,233,212);fill-rule:nonzero;"/>
            </g>
            <g transform="matrix(144,0,0,144,656.625,402.962)">
                <path d="M0.031,-0.035L0.08,-0.601L0.283,-0.601L0.234,-0.035L0.031,-0.035ZM0.488,-0.035L0.348,-0.313L0.551,-0.313L0.691,-0.035L0.488,-0.035ZM0.069,-0.168L0.075,-0.242L0.725,-0.43L0.719,-0.355L0.069,-0.168Z" style="fill:rgb(238,233,212);fill-rule:nonzero;"/>
            </g>
            <g transform="matrix(144,0,0,144,769.125,402.962)">
                <path d="M0.088,-0.508L0.096,-0.602L0.299,-0.602L0.291,-0.508L0.088,-0.508ZM0.048,-0.035L0.076,-0.367L0.279,-0.367L0.251,-0.035L0.048,-0.035Z" style="fill:rgb(238,233,212);fill-rule:nonzero;"/>
            </g>
        </g>
    </g>
</svg>
